<svg height="512pt" viewBox="0 0 512 512" width="512pt" xmlns="http://www.w3.org/2000/svg" xmlns:xlink="http://www.w3.org/1999/xlink"><linearGradient id="a" gradientUnits="userSpaceOnUse" x1="256" x2="256" y1="0" y2="512"><stop offset="0" stop-color="#2af598"/><stop offset="1" stop-color="#009efd"/></linearGradient><path d="m512 170.5c0-29.90625-14.726562-57.328125-41.472656-77.214844-21.355469-15.878906-49.242188-25.757812-79.871094-28.5-7.722656-13.449218-19.265625-25.65625-34.242188-35.9375-27.097656-18.601562-62.757812-28.847656-100.414062-28.847656s-73.316406 10.246094-100.414062 28.847656c-14.976563 10.28125-26.519532 22.488282-34.242188 35.9375-30.628906 2.742188-58.515625 12.621094-79.871094 28.5-26.746094 19.886719-41.472656 47.308594-41.472656 77.214844 0 98.511719 61.550781 186.949219 77 207.589844v133.910156h359v-133.960938c15.179688-20.546874 76-109.015624 76-207.539062zm-446.660156-45.113281c12.089844-8.992188 27.433594-15.328125 44.664062-18.664063.023438 27.683594 4.691406 62.441406 13.152344 97.917969l38.910156-9.28125c-7.78125-32.617187-12.066406-64.171875-12.066406-88.859375 0-36.046875 48.542969-66.5 106-66.5s106 30.453125 106 66.5c0 24.410156-4.355469 55.953125-12.265625 88.820312l38.890625 9.359376c8.601562-35.746094 13.347656-70.523438 13.371094-97.960938 17.230468 3.335938 32.574218 9.675781 44.664062 18.664062 16.339844 12.152344 25.339844 28.175782 25.339844 45.117188 0 82.351562-51.429688 160.339844-66.558594 181.5h-183.738281c-7.1875-15.160156-22.363281-48.089844-36.222656-84.171875l-37.339844 14.34375c10.410156 27.097656 21.34375 52.085937 29.4375 69.828125h-70.082031c-15.257813-21.035156-67.496094-99.097656-67.496094-181.5 0-16.941406 9-32.964844 25.339844-45.113281zm330.660156 346.613281h-279v-80h279zm0 0" fill="url(#a)"/></svg>